<?xml version="1.0" standalone="no"?>
<!DOCTYPE svg PUBLIC "-//W3C//DTD SVG 20010904//EN"
        "http://www.w3.org/TR/2001/REC-SVG-20010904/DTD/svg10.dtd">
<svg version="1.0" xmlns="http://www.w3.org/2000/svg"
     width="200.000000pt" height="200.000000pt" viewBox="0 0 200.000000 200.000000"
     preserveAspectRatio="xMidYMid meet">
    <metadata>
        Created by potrace 1.15, written by Peter Selinger 2001-2017
    </metadata>
    <g transform="translate(0.000000,200.000000) scale(0.100000,-0.100000)"
       fill="#000000" stroke="none">
        <path d="M907 1793 c-3 -16 -9 -57 -13 -92 l-7 -63 -63 6 c-57 6 -64 5 -64
-11 0 -10 -3 -28 -6 -40 -6 -22 -3 -25 42 -38 8 -2 7 -26 -2 -82 -7 -43 -13
-84 -13 -90 -1 -8 -14 -13 -31 -13 -23 0 -30 -5 -30 -19 0 -11 -3 -27 -6 -35
-5 -12 3 -19 25 -27 22 -8 30 -16 27 -28 -3 -9 -8 -38 -11 -66 -13 -102 -14
-106 -43 -103 -22 3 -27 -2 -33 -32 -9 -40 -5 -50 21 -50 27 0 29 -8 19 -75
-19 -125 -17 -121 -46 -120 -23 0 -28 -5 -34 -35 -9 -42 -5 -50 27 -50 23 0
25 -3 20 -28 -3 -15 -8 -49 -11 -77 -10 -76 -14 -84 -43 -87 -24 -3 -27 -7
-27 -43 0 -34 3 -40 23 -43 19 -3 23 -8 19 -25 -3 -12 -11 -66 -18 -119 l-12
-97 -66 -3 c-38 -2 -65 -7 -64 -13 2 -6 169 -11 468 -13 409 -2 465 0 465 13
0 12 -15 15 -75 15 -51 0 -75 4 -75 12 0 6 5 40 11 75 11 60 13 63 37 61 23
-3 27 1 33 35 4 28 2 40 -7 43 -8 2 -20 6 -27 8 -11 3 -12 18 -5 73 13 107 15
111 46 115 24 3 27 7 30 46 3 40 2 42 -23 42 -24 0 -26 3 -21 28 3 15 8 50 11
77 10 80 13 85 46 85 29 0 30 1 27 43 -3 35 -7 43 -26 45 -19 3 -22 8 -18 30
3 15 8 50 11 77 10 79 13 85 46 85 27 0 29 3 29 39 0 33 -4 40 -25 45 -23 6
-24 9 -18 54 19 146 15 136 48 137 28 0 30 3 33 41 l3 42 -55 7 c-64 7 -64 8
-46 124 6 35 9 65 7 68 -5 4 -461 72 -488 73 -10 0 -19 -11 -22 -27z m220 -28
c231 -33 233 -33 234 -53 1 -15 2 -15 6 1 2 9 9 17 15 17 6 0 8 -10 5 -22 -3
-13 -9 -51 -13 -86 -7 -62 -23 -94 -25 -50 -1 17 -3 18 -6 6 -2 -10 -8 -18
-12 -18 -4 0 -4 28 1 61 8 63 0 89 -27 89 -21 0 -34 -25 -42 -81 -9 -57 -21
-67 -68 -55 -22 6 -24 10 -18 56 5 42 3 51 -12 56 -22 9 -49 -7 -53 -32 -9
-58 -12 -64 -40 -64 -46 0 -52 10 -43 73 9 64 -2 92 -34 86 -19 -4 -28 -27
-40 -101 -5 -30 -10 -38 -27 -38 -18 0 -20 4 -15 38 3 20 9 61 13 90 4 28 10
52 15 52 5 0 89 -11 186 -25z m18 -196 c332 -46 335 -46 335 -65 0 -10 -10
-12 -42 -8 -287 39 -650 93 -655 97 -13 14 11 27 40 22 18 -3 163 -24 322 -46z
m-10 -59 c153 -22 280 -41 281 -43 4 -4 -14 -131 -23 -167 -6 -25 -6 -25 -13
5 -6 24 -8 25 -9 8 0 -13 -5 -23 -11 -23 -6 0 -7 18 -2 48 3 26 7 62 7 80 0
31 18 44 28 20 3 -8 6 -6 6 5 1 13 -7 17 -31 17 -18 0 -44 3 -58 5 -20 4 -21
4 -6 -3 13 -6 16 -11 9 -15 -7 -4 -15 -33 -19 -65 -10 -90 -26 -99 -19 -12 3
41 2 80 -2 87 -5 6 -22 14 -38 17 -17 3 -24 3 -18 0 9 -4 10 -11 4 -22 -5 -9
-12 -43 -16 -75 -4 -31 -11 -60 -16 -63 -11 -6 -10 11 0 86 9 61 0 90 -29 90
-21 0 -35 -35 -45 -118 -4 -30 -11 -50 -15 -45 -5 4 -4 33 1 63 11 69 4 110
-21 110 -27 0 -38 -20 -46 -80 -11 -90 -24 -93 -21 -5 1 60 6 82 17 87 9 4 -1
7 -22 7 -45 1 -53 -11 -63 -96 -4 -35 -11 -63 -17 -63 -6 0 -7 22 -2 58 8 58
9 100 3 107 -2 2 -22 6 -44 9 -22 3 -32 3 -22 0 13 -4 16 -11 11 -22 -4 -10
-11 -45 -17 -79 -9 -59 -25 -80 -42 -53 -10 16 17 180 30 180 7 0 137 -18 290
-40z m-33 -216 c172 -25 319 -46 326 -46 19 -2 14 -28 -5 -28 -23 0 -655 90
-671 95 -18 7 -5 25 18 25 10 0 159 -21 332 -46z m-2 -60 c140 -20 261 -37
269 -37 9 0 11 -10 7 -36 -3 -20 -8 -62 -12 -93 -6 -54 -23 -80 -25 -40 -1 16
-2 16 -6 0 -2 -10 -9 -18 -15 -18 -6 0 -8 10 -5 23 18 72 19 124 2 140 -17 18
-50 24 -40 8 3 -5 1 -12 -4 -15 -5 -4 -13 -32 -17 -64 -10 -88 -26 -100 -19
-14 7 83 1 112 -23 112 -25 0 -39 -28 -47 -98 -4 -34 -11 -65 -17 -68 -6 -4
-7 14 -2 52 4 33 8 70 8 84 0 14 5 28 11 32 5 4 -4 8 -21 8 -42 0 -50 -13 -64
-93 -13 -72 -32 -95 -22 -24 4 23 7 58 7 77 0 26 5 37 20 42 15 4 11 6 -15 7
-19 1 -46 4 -60 6 -20 4 -21 4 -6 -3 13 -5 16 -11 9 -15 -6 -4 -15 -36 -18
-72 -11 -97 -28 -94 -20 3 7 74 6 81 -13 91 -11 6 -23 11 -25 11 -10 0 -26
-58 -33 -112 -3 -32 -10 -58 -15 -58 -11 0 -11 11 0 82 11 67 5 98 -19 98 -27
0 -38 -20 -50 -95 -6 -38 -12 -71 -14 -72 -2 -2 -11 0 -20 3 -15 6 -17 15 -11
53 13 98 17 111 34 112 13 1 13 2 -2 6 -25 7 -10 24 16 18 12 -3 137 -21 277
-41z m-30 -220 c168 -24 311 -45 318 -46 6 -1 12 -7 12 -15 0 -9 -11 -12 -37
-8 -113 14 -640 87 -650 90 -25 8 -2 34 25 29 15 -3 164 -25 332 -50z m10 -60
c140 -19 256 -37 258 -38 6 -7 -22 -186 -30 -186 -4 0 -9 8 -9 18 -1 16 -2 16
-6 0 -2 -10 -9 -18 -14 -18 -6 0 -8 8 -5 18 10 38 17 122 11 141 -8 26 -36 27
-52 2 -7 -11 -15 -43 -19 -73 -7 -60 -24 -100 -23 -58 0 14 3 55 8 93 l7 67
-27 0 c-31 0 -44 -26 -54 -107 -4 -29 -11 -53 -16 -53 -6 0 -7 21 -2 53 4 28
7 64 7 79 -1 17 5 29 15 31 9 3 -1 5 -21 6 -20 0 -45 4 -55 7 -12 4 -14 3 -6
-3 9 -6 9 -20 3 -48 -5 -22 -12 -57 -15 -77 -3 -21 -11 -38 -16 -38 -6 0 -8 8
-4 19 13 41 14 151 2 151 -7 0 -23 3 -37 6 -18 4 -21 3 -11 -4 8 -6 9 -12 3
-16 -6 -3 -14 -35 -17 -71 -11 -98 -28 -94 -19 5 5 65 4 84 -7 91 -36 23 -53
-6 -65 -103 -3 -32 -10 -58 -15 -58 -11 0 -11 11 0 82 12 72 6 98 -25 98 -18
0 -25 -8 -33 -37 -6 -21 -11 -47 -11 -58 0 -41 -12 -65 -32 -65 -18 0 -20 4
-14 48 15 106 17 112 40 113 20 2 20 2 -2 6 -35 7 -15 24 21 18 18 -3 147 -21
287 -41z m-65 -214 c348 -48 345 -48 345 -66 0 -10 -9 -13 -32 -9 -18 2 -163
23 -323 45 -343 48 -335 46 -335 66 0 12 7 14 28 10 15 -3 158 -24 317 -46z
m-1 -60 c154 -22 281 -42 283 -44 7 -7 -21 -186 -29 -186 -4 0 -9 8 -9 18 -1
16 -2 16 -6 -1 -10 -37 -20 -5 -12 40 15 90 12 112 -16 119 -14 4 -28 4 -32 1
-3 -3 -10 -40 -16 -81 -6 -42 -15 -76 -19 -76 -4 0 -5 38 -2 85 l7 85 -27 0
c-31 0 -40 -18 -50 -102 -4 -32 -12 -58 -17 -58 -6 0 -7 20 -2 53 4 28 7 63 7
77 1 14 8 28 16 32 10 4 4 7 -15 7 -16 1 -41 4 -55 6 -14 3 -20 3 -14 0 7 -4
6 -29 -3 -82 -12 -72 -19 -92 -27 -82 -1 2 2 39 7 82 6 42 8 79 6 81 -2 3 -17
8 -33 12 -20 5 -27 3 -22 -4 3 -6 2 -13 -3 -16 -5 -4 -13 -35 -16 -71 -4 -36
-11 -68 -16 -71 -11 -6 -11 34 0 98 8 52 -1 78 -28 78 -22 0 -37 -35 -46 -107
-4 -29 -11 -53 -17 -53 -5 0 -7 12 -4 28 3 15 8 53 10 85 l5 57 -29 0 c-25 0
-31 -5 -39 -37 -6 -21 -11 -47 -11 -58 0 -40 -12 -65 -31 -65 -23 0 -23 11 -5
105 8 39 12 73 9 78 -6 11 1 10 301 -33z m-19 -221 c165 -23 302 -46 304 -51
2 -6 7 -5 11 2 4 7 10 8 13 3 19 -30 -22 -28 -343 18 -184 26 -338 48 -342 48
-5 1 -8 8 -8 17 0 13 7 15 33 11 17 -3 167 -25 332 -48z m-35 -54 c335 -48
303 -38 296 -94 -13 -88 -17 -101 -36 -101 -15 0 -16 5 -9 47 5 26 7 55 3 65
-3 10 -1 18 5 18 5 0 12 -8 14 -17 4 -14 5 -12 6 5 1 18 -4 22 -28 22 -16 0
-36 2 -44 6 -19 7 -47 -52 -47 -99 0 -20 -5 -39 -11 -43 -9 -5 -10 8 -5 48 10
78 1 108 -33 108 -34 0 -49 -25 -57 -95 -4 -31 -11 -58 -15 -61 -11 -6 -11 14
0 78 4 26 4 53 0 60 -6 9 -1 15 14 20 19 5 18 6 -8 7 -16 1 -39 4 -50 7 -24 6
-40 -29 -51 -114 -4 -29 -11 -55 -15 -58 -12 -7 -11 6 2 82 13 74 2 104 -37
104 -31 0 -50 -39 -60 -128 -3 -34 -10 -62 -15 -62 -5 0 -5 21 -1 48 4 26 7
67 7 92 0 36 4 46 20 52 15 5 13 6 -11 7 -17 1 -47 3 -65 6 -19 3 -28 3 -22
-1 9 -4 10 -11 4 -22 -5 -10 -15 -54 -21 -100 -10 -66 -16 -82 -30 -82 -16 0
-16 6 -4 88 8 48 15 99 16 115 2 20 8 27 23 27 11 0 130 -16 265 -35z"/>
    </g>
</svg>
